<?xml version="1.0" encoding="utf-8"?>
<!-- Generator: Adobe Illustrator 23.0.0, SVG Export Plug-In . SVG Version: 6.00 Build 0)  -->
<svg version="1.1" id="Capa_1" xmlns="http://www.w3.org/2000/svg" xmlns:xlink="http://www.w3.org/1999/xlink" x="0px" y="0px"
	 viewBox="0 0 612 792" style="enable-background:new 0 0 612 792;" xml:space="preserve">
<style type="text/css">
	.st0{fill:#FFFFFF;}
</style>
<g>
	<g>
		<path class="st0" d="M606.58,564c-201.87,0-403.74,0-605.83,0c0-187.84,0-375.73,0-564c201.79,0,403.81,0,605.83,0
			C606.58,187.87,606.58,375.91,606.58,564z M187.02,367.56c-13.24,5.32-20.99-0.16-24.4-8.5c-2.73-6.69-6.05-6.82-10.4-4.73
			c-19.62,9.38-39.92,18.12-54.07,35.56c-12.02,14.82-17.54,28.77,5.14,41.46c26.97,15.09,54.99,28.49,83.23,41.12
			c52.79,23.6,107.14,37.25,166.15,29.67c47.97-6.16,93.1-17.48,132.16-47.38c18.29-14,32.16-32.46,29.9-55.02
			c-3.54-35.29-27.08-65.45-67.83-67.14c-10.08-0.42-15-5.57-14.5-15.38c0.59-11.53,1.59-23.06,2.8-34.55
			c3.26-30.96,6.55-61.91,10.18-92.83c2.78-23.66,6.63-47.2,8.83-70.9c0.54-5.86-1.88-13.57-5.78-17.85
			c-4.54-4.99-12.02-7.52-18.52-10.47c-39.76-18.05-82.72-15.11-124.63-17.73c-24.37-1.52-49.48-1.33-73.42,2.87
			c-27.24,4.78-53.75,14.24-80.13,23.03c-9.11,3.03-14.62,10.89-13.51,22.34c2.31,23.86,3.16,47.87,5.56,71.72
			c2.13,21.16,5.4,42.21,8.42,63.27c3.93,27.33,7.88,54.66,12.42,81.9c0.8,4.79,3.96,9.56,7.09,13.49
			C176.31,357.25,181.87,362.24,187.02,367.56z"/>
		<path d="M187.02,367.56c-5.15-5.32-10.7-10.31-15.3-16.07c-3.13-3.93-6.29-8.7-7.09-13.49c-4.54-27.23-8.49-54.57-12.42-81.9
			c-3.03-21.06-6.3-42.11-8.42-63.27c-2.4-23.85-3.25-47.85-5.56-71.72c-1.11-11.45,4.4-19.3,13.51-22.34
			c26.38-8.78,52.89-18.25,80.13-23.03c23.94-4.2,49.04-4.39,73.42-2.87c41.91,2.62,84.87-0.32,124.63,17.73
			c6.5,2.95,13.98,5.48,18.52,10.47c3.9,4.28,6.32,11.99,5.78,17.85c-2.2,23.7-6.05,47.24-8.83,70.9
			c-3.64,30.91-6.92,61.87-10.18,92.83c-1.21,11.49-2.21,23.01-2.8,34.55c-0.5,9.81,4.42,14.97,14.5,15.38
			c40.75,1.69,64.29,31.85,67.83,67.14c2.26,22.56-11.61,41.03-29.9,55.02c-39.06,29.89-84.19,41.21-132.16,47.38
			c-59.01,7.58-113.36-6.08-166.15-29.67c-28.24-12.62-56.25-26.02-83.23-41.12c-22.68-12.69-17.16-26.64-5.14-41.46
			c14.14-17.45,34.44-26.18,54.07-35.56c4.36-2.08,7.67-1.95,10.4,4.73C166.03,367.39,173.78,372.88,187.02,367.56z M435.05,352.55
			c-0.5-1.13-1.59-5.82-4.43-8.87c-1.23-1.31-6.62-0.07-9.25,1.49c-11.62,6.85-22.94,14.22-34.34,21.45
			c-6.81,4.32-9.02,10.56-5.43,17.68c4.32,8.58,21.53,15.28,31.45,12.47c7.61-2.16,17.92-0.88,19.13-12.73
			C433.13,374.73,433.88,365.4,435.05,352.55z M408.71,132.34c-9.58,0-15.64-0.47-21.56,0.23c-2.38,0.28-5.58,2.74-6.34,4.93
			c-0.72,2.09,1.33,7.38,2.04,7.35c6.3-0.21,12.77-0.61,18.74-2.44C404.05,141.66,405.38,137.28,408.71,132.34z"/>
		<path class="st0" d="M435.05,352.55c-1.17,12.85-1.93,22.17-2.88,31.48c-1.22,11.85-11.52,10.57-19.13,12.73
			c-9.91,2.81-27.12-3.89-31.45-12.47c-3.59-7.12-1.37-13.35,5.43-17.68c11.4-7.23,22.72-14.6,34.34-21.45
			c2.63-1.55,8.02-2.8,9.25-1.49C433.47,346.73,434.55,351.43,435.05,352.55z"/>
		<path class="st0" d="M408.71,132.34c-3.33,4.94-4.67,9.32-7.12,10.07c-5.97,1.83-12.45,2.23-18.74,2.44
			c-0.7,0.02-2.76-5.27-2.04-7.35c0.75-2.19,3.96-4.65,6.34-4.93C393.07,131.87,399.13,132.34,408.71,132.34z"/>
	</g>
</g>
</svg>
